<?xml version="1.0" encoding="iso-8859-1"?>
<!-- Generator: Adobe Illustrator 19.0.0, SVG Export Plug-In . SVG Version: 6.00 Build 0)  -->
<svg version="1.1" id="Capa_1" xmlns="http://www.w3.org/2000/svg" xmlns:xlink="http://www.w3.org/1999/xlink" x="0px" y="0px"
	 viewBox="0 0 94.854 94.854" style="enable-background:new 0 0 94.854 94.854;" xml:space="preserve">
<g>
	<path d="M94.848,67.866l-1.945-30.632c-0.002-0.056-0.004-0.106-0.008-0.149c0.006-0.095,0.01-0.189,0.01-0.287
		c0-12.004-9.766-21.77-21.769-21.77c-4.864,0-8.214,1.628-11.006,3.587c-0.292-0.091-0.575-0.18-0.853-0.267
		c-2.815-0.887-5.248-1.654-9.967-1.913c-0.056-0.003-0.11-0.004-0.165-0.004h-3.438c-0.055,0-0.11,0.001-0.165,0.004
		c-4.719,0.259-7.151,1.026-9.967,1.913c-0.277,0.087-0.56,0.176-0.852,0.267c-2.792-1.959-6.142-3.587-11.006-3.587
		c-12.003,0-21.769,9.766-21.769,21.77c0,0.096,0.003,0.19,0.009,0.275c-0.003,0.052-0.006,0.105-0.007,0.16L0.006,67.865
		C0.002,67.928,0,67.992,0,68.055c0,6.49,5.28,11.771,11.77,11.771h6.145c1.033,0,1.993-0.531,2.542-1.406l12.355-19.71h29.229
		l12.356,19.71c0.549,0.875,1.509,1.406,2.542,1.406h6.144c6.49,0,11.771-5.28,11.771-11.771
		C94.854,67.993,94.852,67.929,94.848,67.866z M83.083,73.827H78.6l-12.356-19.71c-0.549-0.875-1.509-1.406-2.542-1.406h-32.55
		c-1.033,0-1.993,0.531-2.542,1.406l-12.355,19.71h-4.484c-3.153,0-5.723-2.543-5.769-5.686l1.942-30.593
		c0.004-0.063,0.004-0.048,0.004-0.112c0.006-0.081,0.012-0.162,0.015-0.248c0.001-0.052,0.002-0.104,0.001-0.156
		c-0.002-0.097-0.007-0.192-0.014-0.234c0-8.695,7.074-15.77,15.769-15.77c3.623,0,5.979,1.251,8.607,3.271
		c0.758,0.582,1.748,0.77,2.665,0.502c0.871-0.253,1.65-0.498,2.39-0.731c2.61-0.823,4.501-1.418,8.412-1.64h3.271
		c3.911,0.222,5.802,0.817,8.413,1.64c0.739,0.233,1.519,0.478,2.389,0.731c0.917,0.266,1.907,0.081,2.665-0.502
		c2.628-2.02,4.984-3.271,8.607-3.271c8.694,0,15.769,7.074,15.769,15.718c-0.007,0.104-0.013,0.208-0.013,0.409
		c0.002,0.096,0.007,0.186,0.013,0.202c0,0.063,0.002,0.127,0.006,0.19l1.942,30.593C88.807,71.284,86.237,73.827,83.083,73.827z"/>
	<circle cx="73.501" cy="45.753" r="4.075"/>
	<circle cx="73.503" cy="32.606" r="4.075"/>
	<circle cx="80.076" cy="39.178" r="4.076"/>
	<circle cx="66.929" cy="39.177" r="4.075"/>
	<polygon points="21.799,32.852 15.799,32.852 15.799,37.052 11.599,37.052 11.599,43.052 15.799,43.052 15.799,47.253 
		21.799,47.253 21.799,43.052 25.999,43.052 25.999,37.052 21.799,37.052 	"/>
</g>
<g>
</g>
<g>
</g>
<g>
</g>
<g>
</g>
<g>
</g>
<g>
</g>
<g>
</g>
<g>
</g>
<g>
</g>
<g>
</g>
<g>
</g>
<g>
</g>
<g>
</g>
<g>
</g>
<g>
</g>
</svg>
