<?xml version="1.0" encoding="iso-8859-1"?>
<!-- Generator: Adobe Illustrator 19.0.0, SVG Export Plug-In . SVG Version: 6.00 Build 0)  -->
<svg version="1.1" id="Layer_1" xmlns="http://www.w3.org/2000/svg" xmlns:xlink="http://www.w3.org/1999/xlink" x="0px" y="0px"
	 viewBox="0 0 423.756 423.756" style="enable-background:new 0 0 423.756 423.756;" xml:space="preserve">
<g>
	<path d="M43.841,281.457c-18.585-44.869-18.586-94.29,0-139.159c15.615-37.697,42.78-68.384,77.674-88.255l0,60.863h30l0-99.853
		l-99.853,0v30l29.613,0c-73,57.164-102.324,158.139-65.15,247.885c14.167,34.202,37.07,64.159,66.234,86.634
		c28.274,21.789,61.873,36.201,97.162,41.677l4.601-29.646C120.778,381.774,68.338,340.598,43.841,281.457z"/>
	<path d="M407.517,292.938c21.652-52.272,21.652-109.848,0-162.12c-14.167-34.202-37.07-64.159-66.234-86.633
		C313.008,22.395,279.41,7.983,244.121,2.507l-4.601,29.646c63.342,9.829,115.783,51.005,140.28,110.146
		c18.586,44.869,18.586,94.29,0,139.159c-15.615,37.697-42.78,68.385-77.674,88.255l0-60.863h-30l0,99.853l99.853,0v-30l-29.482,0
		C370.949,356.486,393.327,327.195,407.517,292.938z"/>
	<path d="M239.874,166.715h30c0-26.824-18.291-49.448-43.053-56.078V98.058h-30v12.579c-24.762,6.63-43.053,29.253-43.053,56.078
		c0,27.442,14.402,47.104,40.552,55.365l2.501,0.79v57.858c-7.838-4.981-13.053-13.734-13.053-23.688h-30
		c0,26.824,18.291,49.448,43.053,56.078v12.579h30v-12.579c24.762-6.63,43.053-29.253,43.053-56.078
		c0-27.442-14.402-47.104-40.552-55.365l-2.501-0.79v-57.858C234.658,148.008,239.874,156.761,239.874,166.715z M196.82,190.811
		c-9.068-4.708-13.053-12.223-13.053-24.096c0-9.954,5.216-18.708,13.053-23.688V190.811z M239.874,257.04
		c0,9.954-5.216,18.708-13.053,23.688v-47.784C235.889,237.653,239.874,245.168,239.874,257.04z"/>
</g>
<g>
</g>
<g>
</g>
<g>
</g>
<g>
</g>
<g>
</g>
<g>
</g>
<g>
</g>
<g>
</g>
<g>
</g>
<g>
</g>
<g>
</g>
<g>
</g>
<g>
</g>
<g>
</g>
<g>
</g>
</svg>
