<?xml version="1.0" encoding="iso-8859-1"?>
<!-- Generator: Adobe Illustrator 18.0.0, SVG Export Plug-In . SVG Version: 6.00 Build 0)  -->
<!DOCTYPE svg PUBLIC "-//W3C//DTD SVG 1.1//EN" "http://www.w3.org/Graphics/SVG/1.1/DTD/svg11.dtd">
<svg version="1.1" id="Capa_1" xmlns="http://www.w3.org/2000/svg" xmlns:xlink="http://www.w3.org/1999/xlink" x="0px" y="0px"
	 viewBox="0 0 297 297" style="enable-background:new 0 0 297 297;" xml:space="preserve">
<g>
	<path d="M297,148.5C297,66.617,230.383,0,148.5,0S0,66.617,0,148.5S66.617,297,148.5,297c0.008,0,0.016,0,0.02,0
		c0.002,0,0.004,0,0.007,0C230.397,296.984,297,230.374,297,148.5z M20.915,148.5c0-70.351,57.234-127.585,127.585-127.585
		c32.292,0,58.563,26.271,58.563,58.563c0,32.293-26.271,58.564-58.563,58.564c-43.824,0-79.479,35.654-79.479,79.479
		c0,13.591,3.427,26.393,9.466,37.592C43.834,232.279,20.915,193.014,20.915,148.5z M148.5,276.084
		c-32.292,0-58.563-26.271-58.563-58.563c0-32.293,26.271-58.564,58.563-58.564c43.824,0,79.479-35.654,79.479-79.479
		c0-13.588-3.434-26.386-9.469-37.583c34.654,22.834,57.575,62.09,57.575,106.604C276.085,218.851,218.851,276.084,148.5,276.084z"
		/>
	<path d="M148.501,107.191c15.281,0,27.713-12.432,27.713-27.713c0-15.281-12.432-27.713-27.713-27.713
		c-15.281,0-27.713,12.432-27.713,27.713C120.788,94.76,133.22,107.191,148.501,107.191z M148.501,72.682
		c3.748,0,6.798,3.049,6.798,6.797c0,3.748-3.05,6.798-6.798,6.798c-3.748,0-6.798-3.05-6.798-6.798
		C141.703,75.73,144.753,72.682,148.501,72.682z"/>
	<path d="M148.501,189.808c-15.281,0-27.713,12.433-27.713,27.714c0,15.281,12.432,27.713,27.713,27.713
		c15.281,0,27.713-12.432,27.713-27.713C176.214,202.24,163.782,189.808,148.501,189.808z M148.501,224.318
		c-3.748,0-6.798-3.049-6.798-6.797c0-3.748,3.05-6.798,6.798-6.798c3.748,0,6.798,3.05,6.798,6.798
		C155.299,221.27,152.249,224.318,148.501,224.318z"/>
</g>
<g>
</g>
<g>
</g>
<g>
</g>
<g>
</g>
<g>
</g>
<g>
</g>
<g>
</g>
<g>
</g>
<g>
</g>
<g>
</g>
<g>
</g>
<g>
</g>
<g>
</g>
<g>
</g>
<g>
</g>
</svg>
