<?xml version="1.0" encoding="iso-8859-1"?>
<!-- Generator: Adobe Illustrator 18.0.0, SVG Export Plug-In . SVG Version: 6.00 Build 0)  -->
<!DOCTYPE svg PUBLIC "-//W3C//DTD SVG 1.1//EN" "http://www.w3.org/Graphics/SVG/1.1/DTD/svg11.dtd">
<svg version="1.1" id="Capa_1" xmlns="http://www.w3.org/2000/svg" xmlns:xlink="http://www.w3.org/1999/xlink" x="0px" y="0px"
	 viewBox="0 0 490 490" style="enable-background:new 0 0 490 490;" xml:space="preserve">
<g>
	<path d="M247.162,75.562c2.453-2.453,5.715-3.805,9.185-3.805c3.47,0,6.731,1.351,9.185,3.805c2.453,2.453,3.804,5.715,3.804,9.185
		c0,3.47-1.351,6.731-3.804,9.185c-0.014,0.015-0.026,0.03-0.04,0.045c-1.619,1.117-3.165,2.387-4.604,3.826
		c-12.862,12.862-12.862,33.792,0,46.654c1.953,1.952,4.512,2.929,7.071,2.929c2.559,0,5.119-0.977,7.071-2.929
		c3.905-3.905,3.905-10.237,0-14.143c-5.065-5.064-5.065-13.305,0-18.369c5.064-5.064,13.305-5.064,18.369,0
		c3.905,3.904,10.237,3.904,14.143,0c3.905-3.905,3.905-10.237,0-14.143c-5.184-5.183-11.678-8.274-18.426-9.279
		c0.141-1.245,0.221-2.505,0.221-3.776c0-8.813-3.432-17.097-9.662-23.327c-6.231-6.23-14.516-9.662-23.328-9.662
		c-8.812,0-17.096,3.432-23.327,9.662c-3.905,3.905-3.905,10.237,0,14.143C236.924,79.466,243.256,79.466,247.162,75.562z"/>
	<path d="M266.78,0C165.842,0,84.018,79.707,84.018,178.027c0,5.285,0.25,10.514,0.714,15.682L42.09,289.652
		c-2.604,5.859-2.067,12.637,1.426,18.013c3.494,5.375,9.469,8.619,15.88,8.619h23.24v20.37c0,45.937,36.899,83.174,82.417,83.174
		h17.448V490h198.861V316.713c41.574-32.633,68.18-82.629,68.18-138.685C449.543,79.707,367.718,0,266.78,0z M128.798,233.969
		c-8.998,0-16.292-7.295-16.292-16.293c0-8.997,7.294-16.291,16.292-16.291c8.998,0,16.293,7.294,16.293,16.291
		C145.09,226.674,137.796,233.969,128.798,233.969z M334.09,449.385h-41.073v-20h41.073V449.385z M334.09,409.385h-41.073v-20
		h41.073V409.385z M334.09,369.385h-41.073v-20h41.073V369.385z M334.09,329.385h-41.073v-20h41.073V329.385z M334.09,289.385
		h-41.073v-20h41.073V289.385z M390.468,197.016c-2.987,15.678-16.467,27.513-32.652,27.513c-1.582,0-3.137-0.121-4.66-0.34
		c-5.952,9.239-16.173,15.34-27.79,15.34c-0.705,0-1.402-0.03-2.095-0.074c-5.918,5.546-13.8,8.931-22.454,8.931
		c-10.704,0-20.221-5.182-26.308-13.223c-2.467,0.355-4.982,0.55-7.544,0.55c-19.826,0-37.139-10.974-46.492-27.306
		c-3.76,1.253-7.77,1.939-11.938,1.939c-19.62,0-35.805-15.011-38.23-34.425c-3.086,0.814-6.322,1.249-9.657,1.249
		c-21.294,0-38.556-17.677-38.556-39.48c0-16.288,9.635-30.269,23.385-36.303c-0.09-1.047-0.145-2.105-0.145-3.178
		c0-19.713,15.607-35.694,34.859-35.694c4.513,0,8.821,0.888,12.779,2.486c5.305-15.312,19.569-26.281,36.341-26.281
		c6.483,0,12.589,1.646,17.952,4.542c8.229-8.482,19.626-13.736,32.224-13.736c15.731,0,29.592,8.191,37.744,20.632
		c5.042-2.478,10.691-3.866,16.658-3.866c14.836,0,27.708,8.586,34.155,21.166c2.068-0.398,4.198-0.615,6.379-0.615
		c18.96,0,34.331,15.738,34.331,35.154c0,4.073-0.684,7.98-1.929,11.619c13.113,7.758,21.943,22.26,21.943,38.881
		C428.767,175.364,412.062,194.225,390.468,197.016z"/>
	<path d="M383.659,105.04c5.523,0,10-4.478,10-10c0-5.522-4.477-10-10-10c-18.19,0-32.989,14.799-32.989,32.988
		c0,1.479,0.105,2.94,0.295,4.383c-1.375-2.281-3.036-4.411-4.968-6.343c-6.23-6.23-14.515-9.662-23.327-9.662
		c-5.523,0-10,4.477-10,10c0,5.522,4.477,10,10,10c3.47,0,6.731,1.351,9.185,3.805c2.453,2.453,3.804,5.715,3.804,9.184
		c0,3.47-1.351,6.732-3.804,9.185c-2.453,2.453-5.715,3.805-9.185,3.805c-5.523,0-10,4.478-10,10c0,1.854,0.513,3.582,1.392,5.07
		c-0.32-0.03-0.644-0.049-0.971-0.049c-9.835,0-18.672,4.331-24.722,11.181c-1.295-6.223-4.363-11.942-8.962-16.541
		c-6.231-6.23-14.516-9.662-23.326-9.661c-0.001,0-0.002,0-0.003,0c-8.811,0-17.095,3.432-23.325,9.662
		c-6.23,6.231-9.662,14.516-9.662,23.327c0,5.522,4.477,10,10,10c5.523,0,10-4.478,10-10c0-3.47,1.351-6.732,3.805-9.186
		c2.453-2.453,5.714-3.804,9.185-3.804c0,0,0,0,0.001,0c3.469,0,6.731,1.351,9.184,3.804c2.454,2.453,3.805,5.715,3.805,9.185
		c0,5.522,4.477,10,10,10c0.488,0,0.964-0.047,1.434-0.114c-0.263,1.675-0.402,3.39-0.402,5.137
		c0,18.191,14.799,32.989,32.989,32.989c5.523,0,10-4.477,10-10c0-5.522-4.477-10-10-10c-7.162,0-12.989-5.827-12.989-12.989
		c0-7.162,5.827-12.989,12.989-12.989c5.523,0,10-4.478,10-10c0-1.854-0.513-3.582-1.392-5.07c0.32,0.03,0.643,0.049,0.971,0.049
		c4.921,0,9.678-1.072,14.004-3.104c1.805,1.773,4.276,2.87,7.006,2.87c3.47,0,6.731,1.352,9.185,3.805
		c2.453,2.453,3.804,5.715,3.804,9.185c0,3.47-1.351,6.731-3.804,9.184c-2.453,2.453-5.715,3.805-9.185,3.805
		c-5.523,0-10,4.478-10,10c0,5.523,4.477,10,10,10c8.812,0,17.096-3.432,23.327-9.662c6.231-6.231,9.663-14.516,9.662-23.327
		c0-8.812-3.431-17.097-9.663-23.327c-4.075-4.075-9.032-6.943-14.436-8.446c2.02-4.318,3.089-9.063,3.088-13.972
		c0-1.478-0.105-2.94-0.295-4.382c1.374,2.281,3.036,4.411,4.967,6.343c6.231,6.23,14.516,9.662,23.328,9.662
		c5.523,0,10-4.477,10-10s-4.477-10-10-10c-3.47,0-6.732-1.352-9.186-3.805c-2.453-2.453-3.804-5.715-3.804-9.185
		C370.67,110.867,376.497,105.04,383.659,105.04z"/>
	<path d="M241.09,136.395c0-5.522-4.477-10-10-10c-5.523,0-10,4.478-10,10c0,7.162-5.827,12.989-12.989,12.989
		c-7.163,0-12.99-5.827-12.99-12.989c0-0.019-0.003-0.038-0.003-0.058c0.355-1.936,0.55-3.927,0.55-5.964
		c0-18.19-14.799-32.989-32.989-32.989c-5.523,0-10,4.477-10,10c0,5.522,4.477,10,10,10c7.162,0,12.989,5.827,12.989,12.989
		c0,7.162-5.827,12.989-12.989,12.989c-5.523,0-10,4.478-10,10c0,5.523,4.477,10,10,10c7.337,0,14.121-2.41,19.606-6.477
		c6.049,7.607,15.374,12.499,25.826,12.499C226.292,169.385,241.09,154.586,241.09,136.395z"/>
</g>
<g>
</g>
<g>
</g>
<g>
</g>
<g>
</g>
<g>
</g>
<g>
</g>
<g>
</g>
<g>
</g>
<g>
</g>
<g>
</g>
<g>
</g>
<g>
</g>
<g>
</g>
<g>
</g>
<g>
</g>
</svg>
